# xmcd
#
# Track frame offsets:
#	150
#	18899
#	39716
#	58316
#	75916
#	92283
#	112302
#	131653
#	148724
#	171003
#	188943
#	205203
#	222044
#
# Disc length: 3265 seconds
#
# Revision: 1
# Processed by: cddbd v1.5PL3 Copyright (c) Steve Scherf et al.
# Submitted via: dBpowerAMP V4.0
#
DISCID=b40cbf0d
DTITLE=Luc Dumont - Suivre
DYEAR=200
DGENRE=Worship
TTITLE0=Je vais t'aimer
TTITLE1=Suivre
TTITLE2=Permets-moi de t'exprimer
TTITLE3=La génération du réveil
TTITLE4=Un jour dans tes parvis
TTITLE5=Qui donc dans le ciel
TTITLE6=Hommage à mon Roi
TTITLE7=Abrité sous Ton aile
TTITLE8=Jamais plus je n'oublierai
TTITLE9=Éclaire ma vie
TTITLE10=L'abri
TTITLE11=Louez Dieu
TTITLE12=Je te chanterai toujours/ Je chanterai Ton amour
EXTD=
EXTT0=
EXTT1=
EXTT2=
EXTT3=
EXTT4=
EXTT5=
EXTT6=
EXTT7=
EXTT8=
EXTT9=
EXTT10=
EXTT11=
EXTT12=
PLAYORDER=
